# xmcd
#
# Track frame offsets:
#	183
#	11585
#	23193
#	35573
#	41888
#	53420
#	63938
#	76638
#	80245
#	88865
#	100000
#	116265
#	120425
#	134138
#	143830
#	158130
#	167530
#	181943
#
# Disc length: 2619 seconds
#
# Revision: 0
# Processed by: cddbd v1.4PL0 Copyright (c) Steve Scherf et al.
# Submitted via: dBpowerAMP V4.0
#
DISCID=e10a3912
DTITLE=Renato Andrade - A viola de Renato Andrade
DYEAR=1900
DGENRE=Country
TTITLE0=Seriema no campo
TTITLE1=Prelúdio da Inhuma
TTITLE2=Viola e suas variações
TTITLE3=Folia de reis
TTITLE4=Literatura de cordel
TTITLE5=O jeca na estrada
TTITLE6=Viola de cego
TTITLE7=Moto perpétuo caipira
TTITLE8=Ballet na roça
TTITLE9=Luar do sertão
TTITLE10=Tristeza do jeca
TTITLE11=Viola de Queluz
TTITLE12=Reizados e congadas
TTITLE13=Ponteado caipira
TTITLE14=Meu abraço a Portugal
TTITLE15=Viola de beira de fogo
TTITLE16=Sertões
TTITLE17=Sarapalha
EXTD=Coletânea volume 1 da série "A Magia"
EXTT0=
EXTT1=
EXTT2=
EXTT3=
EXTT4=
EXTT5=
EXTT6=
EXTT7=
EXTT8=
EXTT9=
EXTT10=
EXTT11=
EXTT12=
EXTT13=
EXTT14=
EXTT15=
EXTT16=
EXTT17=
PLAYORDER=
